<?xml version="1.0" standalone="no"?>
<!DOCTYPE svg PUBLIC "-//W3C//DTD SVG 20010904//EN"
 "http://www.w3.org/TR/2001/REC-SVG-20010904/DTD/svg10.dtd">
<svg version="1.0" xmlns="http://www.w3.org/2000/svg"
 width="845.000000pt" height="725.000000pt" viewBox="0 0 845.000000 725.000000"
 preserveAspectRatio="xMidYMid meet">
<metadata>
Created by potrace 1.16, written by Peter Selinger 2001-2019
</metadata>
<g transform="translate(0.000000,725.000000) scale(0.100000,-0.100000)"
fill="#000000" stroke="none">
<path d="M0 3625 l0 -3625 1506 0 1506 0 -7 438 -7 437 -34 170 c-19 94 -50
238 -69 320 -20 83 -40 171 -46 197 -13 56 -14 169 -1 177 17 12 42 56 42 76
0 11 6 30 13 41 6 12 29 50 49 85 20 35 58 113 83 173 107 251 100 242 378
520 l252 253 85 31 c100 38 167 80 285 182 144 123 212 178 244 195 17 8 31
20 31 24 0 18 102 131 118 131 10 0 49 -14 87 -30 63 -27 68 -25 21 5 -13 9
-13 17 -1 75 8 36 17 86 20 112 l6 47 37 -6 c20 -4 60 -19 89 -35 31 -17 66
-28 90 -28 21 0 44 -5 50 -11 18 -18 111 -37 216 -45 95 -6 104 -9 128 -35 15
-16 32 -29 37 -29 6 0 17 -9 24 -19 8 -11 27 -25 43 -32 17 -7 37 -22 46 -32
16 -20 17 -20 79 1 l62 21 48 -24 c47 -24 100 -79 100 -104 0 -7 14 -17 31
-23 22 -7 29 -15 24 -26 -4 -11 2 -9 18 7 23 20 32 22 99 18 40 -2 114 -12
163 -21 50 -9 133 -21 186 -26 53 -5 150 -22 215 -38 66 -16 155 -36 199 -45
89 -17 219 -62 280 -97 22 -13 61 -43 88 -67 26 -24 55 -43 65 -41 21 3 141
-77 149 -100 3 -9 20 -49 39 -88 19 -38 38 -92 43 -120 6 -27 33 -103 61 -169
27 -66 50 -127 50 -137 0 -63 80 -312 132 -410 20 -36 57 -133 83 -214 44
-140 164 -402 203 -447 12 -13 13 -20 4 -29 -17 -17 -15 -25 8 -31 12 -3 20
-14 20 -27 0 -20 3 -21 45 -14 l46 6 -16 -40 c-10 -23 -15 -60 -13 -88 3 -49
3 -49 43 -54 42 -5 52 -21 41 -65 -11 -41 -53 -81 -141 -130 -47 -27 -83 -50
-81 -52 2 -3 14 0 25 7 25 13 41 6 41 -18 0 -9 9 -46 21 -82 13 -42 24 -116
30 -210 6 -86 19 -186 33 -245 14 -55 27 -115 31 -132 l7 -33 284 0 284 0 0
3625 0 3625 -4225 0 -4225 0 0 -3625z m3711 2535 c34 -19 22 -65 -34 -127 -15
-17 -24 -20 -37 -13 -15 8 -19 5 -25 -17 -8 -34 -31 -67 -117 -170 -86 -103
-101 -112 -139 -84 -35 26 -39 26 -39 3 0 -45 -126 -177 -186 -196 -12 -4 -51
-33 -88 -65 -40 -35 -107 -79 -171 -111 -81 -42 -110 -62 -130 -92 -14 -21
-21 -38 -16 -38 19 0 -32 -142 -144 -405 -26 -60 -62 -154 -80 -207 -52 -152
-95 -223 -180 -297 -41 -36 -97 -97 -125 -135 -138 -190 -290 -449 -365 -621
-49 -113 -181 -464 -220 -585 -36 -111 -185 -528 -218 -610 -19 -47 -56 -137
-82 -200 -58 -143 -123 -265 -183 -344 -26 -34 -64 -93 -84 -132 -20 -38 -55
-90 -76 -115 -52 -59 -118 -192 -125 -253 -5 -35 -20 -70 -55 -125 -28 -42
-68 -112 -91 -156 -61 -118 -94 -151 -166 -170 -72 -18 -116 -12 -170 25 -55
38 -73 60 -137 170 -95 164 -110 231 -88 408 25 199 212 564 520 1017 258 379
310 459 472 725 85 140 208 338 273 440 65 102 148 237 183 300 123 218 257
417 320 474 15 13 46 41 70 61 65 58 190 218 219 282 15 32 52 96 83 143 30
47 91 147 134 221 115 200 183 269 265 269 17 0 46 11 65 24 20 13 59 32 87
42 28 10 62 29 76 41 13 13 26 23 29 23 3 0 27 24 53 53 33 35 76 66 132 96
68 35 159 103 201 149 166 183 312 312 351 312 10 0 27 -5 38 -10z m97 -222
c16 -16 15 -64 -3 -101 -16 -34 -82 -114 -173 -213 -108 -114 -198 -219 -229
-264 -17 -25 -51 -63 -75 -85 -94 -88 -93 -88 -135 -80 -37 6 -39 8 -35 38 3
25 31 59 122 152 82 84 142 157 200 245 90 135 111 162 202 258 61 63 98 78
126 50z m473 -200 c35 -76 90 -140 228 -270 118 -110 130 -119 215 -151 102
-39 248 -61 326 -51 41 5 50 4 50 -8 0 -9 -13 -21 -29 -27 -30 -13 -51 -47
-51 -85 0 -34 -17 -44 -88 -52 -61 -6 -64 -6 -95 24 -62 59 -121 63 -370 27
-255 -37 -245 -36 -254 -23 -4 7 -10 72 -13 145 -4 109 -8 135 -24 152 -16 17
-18 30 -12 78 9 77 44 213 62 240 8 12 14 29 14 38 0 29 17 14 41 -37z m766
-164 c125 -53 254 -106 285 -118 31 -12 59 -24 62 -27 3 -3 -35 -22 -85 -42
l-90 -36 -87 55 c-101 63 -351 245 -352 257 -1 19 56 0 267 -89z m258 -423
c-6 -20 -20 -25 -57 -22 -23 3 -23 -26 -1 -51 21 -24 114 -25 137 -2 20 19 30
57 23 90 -4 21 -1 25 17 22 18 -3 21 -9 20 -47 -1 -35 -7 -49 -27 -67 -22 -19
-24 -24 -11 -34 18 -15 122 -16 137 -1 15 15 54 14 60 -2 8 -21 -11 -189 -22
-200 -12 -12 -187 -36 -266 -37 -88 0 -129 41 -176 179 -23 67 -24 81 -1 79
42 -3 66 2 55 13 -17 17 -4 46 35 76 61 47 92 49 77 4z m-504 -89 c23 -42 6
-198 -29 -272 -26 -52 -63 -67 -223 -91 -225 -33 -270 -20 -305 83 -13 41 -14
57 -4 91 6 23 17 49 23 58 20 27 66 51 83 45 9 -4 26 -4 37 0 20 6 20 7 -3 24
l-24 18 48 31 c50 31 131 50 146 35 4 -5 4 -20 -1 -33 -7 -19 -15 -22 -39 -19
-34 5 -38 -6 -14 -41 15 -22 22 -23 78 -18 65 6 86 22 86 64 0 29 14 30 34 2
23 -33 50 -18 42 24 -3 19 -3 36 0 40 11 10 51 -14 65 -41z m-791 -99 c80
-144 125 -292 103 -344 -33 -79 -88 2 -166 246 -21 66 -41 181 -33 200 12 32
34 10 96 -102z m1003 75 c11 -9 24 -49 38 -122 11 -60 29 -133 40 -163 30 -79
18 -117 -55 -167 -41 -28 -94 -34 -141 -16 -17 7 -32 7 -43 0 -15 -8 -15 -10
3 -11 63 -4 90 -11 115 -29 53 -38 146 -19 202 42 55 60 62 85 45 155 -9 32
-14 59 -12 61 1 1 14 -3 29 -9 21 -10 60 -10 182 0 85 7 157 11 159 9 4 -4
-44 -124 -94 -230 l-31 -67 -52 31 c-48 28 -119 58 -138 58 -4 0 -27 -15 -51
-34 -40 -31 -55 -36 -164 -50 -66 -9 -131 -19 -145 -22 -16 -3 -43 4 -72 19
-44 22 -50 23 -75 10 -93 -48 -172 -150 -209 -268 -21 -68 -24 -87 -14 -105 9
-16 15 -19 23 -11 17 17 29 13 24 -6 -3 -10 -8 -35 -12 -55 -5 -33 -9 -38 -33
-38 -116 0 -170 65 -247 296 -31 92 -75 334 -75 404 l1 25 22 -26 c53 -64 127
-72 347 -40 136 20 166 29 192 58 22 24 63 117 78 174 19 77 41 118 69 128 37
14 74 13 94 -1z m-1473 -236 c0 -5 -40 -31 -90 -58 -61 -33 -90 -55 -90 -67 0
-10 -13 -30 -28 -45 -16 -15 -32 -35 -35 -44 -4 -10 -12 -18 -19 -18 -8 0 -20
-11 -28 -24 -8 -12 -31 -37 -51 -54 -33 -29 -39 -30 -67 -20 -22 9 -31 19 -35
41 -4 27 2 33 77 81 45 28 104 65 131 80 28 16 77 48 110 70 48 33 90 56 123
65 1 1 2 -3 2 -7z m1710 -494 c0 -24 -40 -78 -71 -97 -17 -11 -60 -25 -95 -31
-61 -12 -76 -21 -54 -35 41 -25 -96 -35 -140 -10 -34 19 -54 19 -46 -1 3 -8 0
-22 -8 -30 -8 -7 -17 -31 -21 -51 -3 -21 -13 -47 -21 -58 -14 -19 -14 -19 -35
1 -11 12 -36 59 -55 105 -19 46 -37 89 -40 96 -9 19 85 67 136 69 52 3 303 32
370 44 68 11 80 11 80 -2z m-379 -299 c13 -6 18 -17 14 -28 -3 -11 4 -24 22
-38 16 -11 39 -41 53 -66 23 -44 23 -47 7 -65 -9 -10 -14 -21 -11 -24 3 -3 0
-9 -7 -14 -8 -4 -10 -3 -5 4 11 18 -15 14 -35 -4 -20 -18 -55 -11 -68 14 -4 9
-11 39 -14 65 -5 37 -3 49 8 53 13 5 12 10 -1 36 -16 31 -12 78 7 78 6 0 19
-5 30 -11z m-470 -253 c-40 -41 -115 -174 -131 -231 -9 -33 -26 -58 -61 -89
-67 -60 -218 -150 -320 -190 -96 -38 -121 -52 -199 -115 -81 -65 -258 -147
-346 -159 -78 -11 -114 -26 -187 -80 -58 -42 -126 -67 -140 -53 -7 7 -2 38 13
96 22 83 22 86 5 105 -22 24 -26 20 -49 -43 -27 -74 -61 -81 -122 -25 -21 19
-22 19 -57 -2 -20 -12 -66 -26 -102 -31 -38 -5 -88 -21 -122 -39 -31 -16 -66
-30 -79 -30 -32 0 -54 -10 -54 -25 0 -7 -26 -20 -58 -29 -32 -9 -79 -30 -104
-46 -85 -56 -325 -140 -401 -140 -28 0 -29 2 -23 31 3 17 6 37 6 44 0 6 19 18
42 24 23 7 218 101 432 208 l390 195 100 14 c56 8 130 25 164 39 54 22 71 24
112 17 35 -7 93 -3 217 13 186 25 211 34 478 168 72 35 182 88 245 117 117 53
230 118 230 133 0 21 130 168 142 161 5 -4 -4 -20 -21 -38z m-2279 -1479 c9
-7 20 -35 24 -62 9 -56 7 -77 -8 -86 -6 -4 -8 -15 -4 -24 8 -22 -10 -55 -31
-55 -16 0 -16 -1 2 -110 2 -14 13 -43 25 -65 11 -21 20 -51 20 -65 0 -14 11
-59 24 -100 13 -41 29 -117 36 -169 12 -92 7 -201 -10 -201 -14 0 -50 70 -50
99 0 15 -20 95 -45 178 -44 146 -73 211 -188 418 -39 70 -51 103 -55 146 l-4
56 36 7 c20 4 55 15 79 26 49 22 124 25 149 7z m-632 -469 c0 -7 -7 -50 -16
-94 -17 -86 -17 -86 -114 -173 -46 -42 -207 -169 -264 -208 -17 -12 -44 -25
-61 -28 -44 -11 -88 -34 -107 -58 -32 -41 -30 -8 3 50 33 59 90 116 387 391
135 124 172 150 172 120z"/>
<path d="M4325 5265 c-22 -8 -41 -15 -42 -15 -7 0 -43 -82 -43 -97 1 -10 10 1
22 25 13 26 31 48 47 54 33 13 135 4 310 -26 144 -24 156 -22 133 28 -12 27
-50 33 -257 41 -102 4 -139 2 -170 -10z"/>
<path d="M6787 2816 c-3 -7 -2 -31 3 -52 5 -21 7 -40 5 -42 -10 -10 -35 9 -35
27 0 24 -13 29 -67 25 -24 -1 -43 2 -43 7 0 4 -7 6 -15 3 -8 -4 -15 -14 -15
-23 0 -9 -7 -26 -15 -38 -8 -12 -19 -52 -25 -91 -5 -38 -17 -96 -25 -128 -14
-54 -24 -132 -40 -334 -8 -101 -11 -112 -33 -136 -34 -36 -39 -57 -40 -157 0
-76 3 -100 14 -104 24 -9 35 -39 24 -67 -13 -35 -28 -33 -45 7 -10 24 -11 35
-2 46 10 11 9 13 -2 10 -9 -3 -22 -39 -34 -90 -11 -46 -25 -91 -32 -99 -7 -8
-16 -46 -20 -85 -4 -38 -11 -77 -15 -85 -16 -31 -24 -358 -17 -675 1 -38 -4
-126 -11 -195 -19 -205 -21 -291 -5 -328 9 -21 14 -65 13 -111 -1 -42 -1 -82
-1 -88 1 -10 82 -13 372 -13 348 0 370 1 365 18 -12 38 -46 328 -46 388 0 58
2 66 23 74 36 14 10 11 -49 -6 -29 -8 -68 -14 -86 -12 -28 2 -35 9 -45 38 -14
41 -15 143 -3 215 10 59 -12 136 -59 209 -15 25 -34 67 -40 93 -7 27 -18 68
-26 93 -7 25 -18 67 -25 94 -6 27 -23 64 -37 83 -25 32 -26 37 -19 126 13 173
46 482 81 752 32 249 39 283 89 444 56 178 58 201 20 215 -24 9 -31 7 -37 -8z"/>
</g>
</svg>
